# xmcd
#
# Track frame offsets: 
#        150
#        17217
#        34430
#        49510
#        62330
#        73142
#        91835
#        105610
#        116910
#        129962
#        147412
#        164550
#        173080
#        188790
#        203695
#        220057
#
# Disc length: 3423 seconds
#
# Revision: 1
# Processed by: cddbd v1.5.1PL0 Copyright (c) Steve Scherf et al.
# Submitted via: ExactAudioCopy v0.95a5
#
DISCID=e50d5d10
DTITLE=Various Artist - All-Star Blues Sessions
DYEAR=1999
DGENRE=Blues
TTITLE0=Bob Corritore w/ Lil' Ed Williams - Hip Shakin'
TTITLE1=Bob Corritore w/ Jimmy Rogers - Out On The Road
TTITLE2=Bob Corritore w/ Robert Lockwood Jr - Naptown Blues
TTITLE3=Bob Corritore w/ Henry Gray - Everybody's Fishin'
TTITLE4=Bob Corritore w/ Clarance Edwards - Hear That Rumblin'
TTITLE5=Bob Corritore w/ Pinetop Perkins and Chico Chism - Five Long Yea
TTITLE5=rs
TTITLE6=Bob Corritore w/ Henry Gray - How Many More Years
TTITLE7=Bob Corritore w/ R. L. Burnside - Goin' Down South
TTITLE8=Bob Corritore w/ King Carl - Cool Calm Collected
TTITLE9=Bob Corritore w/ Clarance Edwards - Coal Black Mare
TTITLE10=Bob Corritore w/ Bo Diddley - Little Girl
TTITLE11=Bob Corritore w/ Jimmy Dotson - Tired Of Being Alone
TTITLE12=Bob Corritore w/ Henry Gray - Showers Of Rain
TTITLE13=Bob Corritore w/ Chico Chism - I Had My Fun
TTITLE14=Bob Corritore w/ Dino Spells - Jennie Bea
TTITLE15=Bob Corritore w/ Nappy Brown - Nappy's Driftin' Blues
EXTD=
EXTT0=
EXTT1=
EXTT2=
EXTT3=
EXTT4=
EXTT5=
EXTT6=
EXTT7=
EXTT8=
EXTT9=
EXTT10=
EXTT11=
EXTT12=
EXTT13=
EXTT14=
EXTT15=
PLAYORDER=
